<?xml version="1.0" encoding="UTF-8"?>
<svg id="Calque_1" data-name="Calque 1" xmlns="http://www.w3.org/2000/svg" viewBox="0 0 500 500">
  <defs>
    <style>
      .cls-1 {
        fill: #2e294e;
        fill-rule: evenodd;
      }
    </style>
  </defs>
  <path class="cls-1" d="M290.25,149.14c-25.43,0-48.56,8.46-67.16,25.84l-.1.06c.87.31,1.73.63,2.58.98,3.65,1.51,9.8,4.52,11.94,5.69,2.24,1.21,4.46,2.48,6.64,3.8,3.66,2.23,6.91,4.38,7.04,4.48,11.97-8.52,24.23-11.39,39.06-11.39,38.67.04,70.48,31.83,70.53,70.5,0,18.99-7.4,37.23-20.62,50.85-12.91,13.66-30.86,21.42-49.65,21.46-17.62,0-35.89-8.19-50.14-22.46l-44.85-44.97c-2.76-2.85-6.57-4.45-10.54-4.43h0c-8.08,0-14.73,6.65-14.73,14.73,0,3.85,1.51,7.54,4.2,10.3l45.17,45.26c19.75,19.72,45.59,31.03,70.89,31.03,26.68-.04,52.19-10.96,70.64-30.24h0c18.66-19.13,29.11-44.8,29.09-71.52-.07-54.82-45.17-99.9-99.98-99.95Z"/>
  <path class="cls-1" d="M199.8,320.55l-.06-.19-6.77-.03c-29.14,0-53.75-24.41-53.75-53.3.06-28.83,23.8-52.51,52.62-52.51,12.6,0,24.78,4.52,34.33,12.74l33.91,34.8c2.77,2.85,6.57,4.45,10.54,4.45,8.06,0,14.7-6.63,14.7-14.7,0-3.82-1.49-7.48-4.14-10.22l-34.17-35.07-.4-.35c-15.06-13.49-34.59-20.92-54.8-20.85-45.08.25-82.03,37.41-82.03,82.49s37.19,82.44,82.41,82.49h44.31s-27-16.37-36.69-29.74Z"/>
  <path class="cls-1" d="M383.61,40H116.39c-45.01,0-81.55,36.54-81.55,81.55v256.9c0,45.01,36.54,81.55,81.55,81.55h267.22c45.01,0,81.55-36.54,81.55-81.55V121.55c0-45.01-36.54-81.55-81.55-81.55ZM288.78,367.26h-94.84c-27.12.09-53.05-11.13-71.56-30.95-17.73-18.82-27.69-43.63-27.9-69.48,0-47.88,38.03-99.56,99.46-99.56,3.76,0,7.52.21,11.25.63,20.39-21.72,52.25-35.15,83.59-35.15,32.12-.22,62.86,13.06,84.72,36.61,20.33,21.81,31.75,50.44,32.02,80.26,0,64.87-52.37,117.65-116.74,117.65Z"/>
</svg>