<?xml version="1.0" encoding="UTF-8"?>
<svg id="Calque_1" data-name="Calque 1" xmlns="http://www.w3.org/2000/svg" viewBox="0 0 500 500">
  <defs>
    <style>
      .cls-1 {
        fill: #2e294e;
      }
    </style>
  </defs>
  <path class="cls-1" d="M249.73,459.96c-46.16,0-92.33.1-138.49-.03-38.03-.11-68.85-25.88-75.71-63.24-.92-5.02-1.1-10.23-1.11-15.35-.06-87.45-.13-174.9,0-262.35.06-39.02,23.85-69.16,60.67-77.08,6.08-1.31,12.45-1.8,18.68-1.8,90.76-.11,181.51-.16,272.27-.04,40.51.05,71.47,25.19,78.41,63.41.99,5.46,1.13,11.13,1.14,16.7.07,86.55.08,173.11.03,259.66-.03,47.66-32.52,80.1-80.09,80.12-45.27.02-90.53,0-135.8,0ZM264.45,336.27c0-1.94.18-2.66-.03-3.23-21.5-60.37-42.99-120.74-64.76-181.01-.67-1.85-4.22-3.72-6.48-3.78-13.21-.35-26.44-.19-39.66-.14-1.48,0-2.96.44-3.68.56-1.98,7.98-3.26,15.5-5.71,22.61-18.07,52.34-36.39,104.59-54.61,156.88-.77,2.22-1.37,4.49-2.47,8.16,11.77,0,22.41-.18,33.04.09,4.63.12,6.81-1.63,8.12-6,3.47-11.54,7.52-22.91,10.96-34.46,1.12-3.75,2.96-4.81,6.67-4.78,18.82.15,37.65.19,56.47-.03,4.12-.05,5.9,1.46,7.12,5.21,3.8,11.68,7.82,23.28,12.05,34.81.72,1.97,2.84,4.83,4.38,4.88,12.71.4,25.44.22,38.58.22ZM315.01,274.85c2.43,0,4.86,0,7.3,0,24.63,0,49.27-.12,73.9.1,5.08.04,7.44-1.33,7.39-6.7-.06-5.79,1.08-11.63.71-17.38-1.29-19.95-7.43-37.8-24.83-49.66-23.29-15.88-69.39-15.15-90.81,16.32-10.72,15.75-15.57,33.03-14.82,51.87,1.07,26.88,10.11,49.86,35.76,62.19,25.35,12.18,51.73,10.11,77.85,1.71,1.77-.57,4.19-2.82,4.25-4.37.4-9.47.2-18.97.2-29.09-3.15.87-5.23,1.52-7.35,2.03-17.13,4.15-34.29,7.04-51.37-.15-11.34-4.77-18.35-15.07-18.17-26.87Z"/>
  <path class="cls-1" d="M174.64,182.92c7.33,24.03,14.66,48.07,22.14,72.6h-45.51c7.44-24.43,14.75-48.43,22.07-72.44.43-.06.87-.11,1.3-.17Z"/>
  <path class="cls-1" d="M314.59,248.6c2.36-20.23,18.79-31.36,35.91-24.77,4.5,1.73,8.92,5.33,11.73,9.25,2.52,3.5,2.77,8.62,4.02,13.03-3.95.83-7.88,2.29-11.85,2.38-13.11.3-26.23.11-39.82.11Z"/>
</svg>