<?xml version="1.0" encoding="UTF-8"?>
<svg id="Calque_1" data-name="Calque 1" xmlns="http://www.w3.org/2000/svg" viewBox="0 0 500 500">
  <defs>
    <style>
      .cls-1 {
        fill: #2e294e;
        fill-rule: evenodd;
      }
    </style>
  </defs>
  <path class="cls-1" d="M289.65,220.14c-32.9,0-59.67,22.3-59.67,49.72s26.77,49.72,59.67,49.72,59.67-22.3,59.67-49.72-26.77-49.72-59.67-49.72ZM289.65,299.7c-21.97,0-39.78-14.84-39.78-33.15s17.81-33.15,39.78-33.15,39.78,14.84,39.78,33.15-17.81,33.15-39.78,33.15Z"/>
  <path class="cls-1" d="M383.61,40H116.39c-45.01,0-81.55,36.54-81.55,81.55v256.9c0,45.01,36.54,81.55,81.55,81.55h267.22c45.01,0,81.55-36.54,81.55-81.55V121.55c0-45.01-36.54-81.55-81.55-81.55ZM289.65,379.26c-59.65,0-108.62-41.78-112.46-94.42l-45.92,37.11c-4.29,3.47-9.68,5.04-15.16,4.47-5.48-.58-10.41-3.26-13.88-7.55-3.47-4.29-5.04-9.68-4.47-15.16.58-5.48,3.26-10.41,7.55-13.88l94.41-76.31h-49.3c-10.97,0-19.89-8.92-19.89-19.89s8.92-19.89,19.89-19.89h112.55l-21.88-17.6c-8.55-6.88-9.92-19.42-3.04-27.97,3.33-4.14,8.07-6.74,13.35-7.32,1.32-.14,2.63-.14,3.92-.03h0c3.88.34,7.59,1.82,10.7,4.31l84.71,68.11c32.34,18.75,51.63,50.46,51.63,84.91,0,55.75-50.56,101.1-112.71,101.1Z"/>
</svg>