<?xml version="1.0" encoding="UTF-8"?>
<svg id="Calque_1" data-name="Calque 1" xmlns="http://www.w3.org/2000/svg" viewBox="0 0 500 500">
  <defs>
    <style>
      .cls-1 {
        fill: #2e294e;
        fill-rule: evenodd;
      }
    </style>
  </defs>
  <path class="cls-1" d="M126.03,316.21c.16,3.89-.7,8.09,1.19,11.69,1.8,3.63,5.83,5.87,9.85,5.72,57.06,0,114.13,0,171.2,0,3.78.05,7.53-2.04,9.36-5.37,2.18-3.78,1.17-8.32,1.39-12.47-32.07-15.83-64.07-31.92-96.2-47.57-32.26,16.01-64.56,31.94-96.78,48.01Z"/>
  <path class="cls-1" d="M308.2,166.88c-57.06-.02-114.11,0-171.15,0-4.08-.15-8.14,2.18-9.91,5.89-1.77,3.58-.95,7.7-1.11,11.54,32.33,16.01,64.62,32.12,96.99,48.03,31.99-15.89,63.98-31.73,95.98-47.57.03-2.87.14-5.76-.08-8.62-.58-5.2-5.49-9.39-10.71-9.25Z"/>
  <path class="cls-1" d="M383.61,40H116.39c-45.01,0-81.55,36.54-81.55,81.55v256.9c0,45.01,36.54,81.55,81.55,81.55h267.22c45.01,0,81.55-36.54,81.55-81.55V121.55c0-45.01-36.54-81.55-81.55-81.55ZM402.42,321.32c1.75.71,3.28,2.28,3.32,4.27.02,9.77,0,19.54,0,29.31.16,1.98-2.32,3.1-3.83,1.95-17.08-8.59-34.39-16.79-51.35-25.62-1.42,3.97-2.37,8.18-4.53,11.88-5.67,10.58-15.96,18.56-27.64,21.35-3.87,1.05-7.91.91-11.88.98h-165.12c-3.72,0-7.45.05-11.16-.29-18.68-2.39-34.47-18.83-35.92-37.63-.1-9.45-.08-18.91-.02-28.36,0-2.46,2.21-4.23,4.27-5.16,29.44-14.55,58.82-29.22,88.3-43.71-29.7-14.79-59.47-29.47-89.18-44.23-1.89-1.01-3.63-2.92-3.42-5.2,0-9.44-.07-18.87.05-28.31,1.75-20.15,20-37.19,40.21-37.59,59.05,0,118.11,0,177.15,0,12.7.93,24.72,7.95,31.89,18.45,3.35,4.71,5.47,10.18,6.78,15.79,17.34-8.61,34.7-17.21,52.05-25.8,1.31-.72,3.28.24,3.32,1.77.09,9.75.02,19.5.03,29.27.13,1.98-1.22,3.82-3.01,4.59-47.89,23.76-95.81,47.47-143.7,71.24,47.81,23.67,95.59,47.38,143.39,71.06Z"/>
</svg>