<?xml version="1.0" encoding="UTF-8"?>
<svg id="Calque_1" data-name="Calque 1" xmlns="http://www.w3.org/2000/svg" viewBox="0 0 500 500">
  <defs>
    <style>
      .cls-1 {
        fill: #2e294e;
      }
    </style>
  </defs>
  <path class="cls-1" d="M465.26,119.57c0-5.71-.25-11.52-1.32-17.11-7.23-37.88-37.97-62.39-78.31-62.42-90.34-.07-180.69-.05-271.03.04-6.16,0-12.45.29-18.46,1.51-37.52,7.63-61.4,38.08-61.44,78.41-.1,86.67-.06,173.35.03,260.02,0,5.94.26,11.98,1.39,17.79,7.28,37.36,37.77,61.93,77.21,62.09,45.63.18,91.26.04,136.89.04,44.71,0,89.43.07,134.14-.07,6.62-.02,13.38-.28,19.82-1.62,37.33-7.76,61.04-37.96,61.1-77.97.13-86.9.06-173.81-.02-260.71ZM346.63,215.92l-7.85,128.46-88.23,29.06-88.23-29.06-3.36-61.44h44.68l1.09,27.93,45.82,15.62,45.82-15.62,3.32-50.27h-98.27l-2.27-44.68h102.8l3.32-44.68h-154.12l-3.36-44.68h204.43l-5.58,89.36Z"/>
</svg>