<?xml version="1.0" encoding="UTF-8"?>
<svg id="Calque_1" xmlns="http://www.w3.org/2000/svg" version="1.1" viewBox="0 0 500 500">
  <!-- Generator: Adobe Illustrator 29.0.1, SVG Export Plug-In . SVG Version: 2.1.0 Build 192)  -->
  <defs>
    <style>
      .st0 {
        fill: #2e294e;
        fill-rule: evenodd;
      }
    </style>
  </defs>
  <path class="st0" d="M383.6,40H116.4c-45,0-81.5,36.5-81.5,81.5v256.9c0,45,36.5,81.5,81.5,81.5h267.2c45,0,81.5-36.5,81.5-81.5V121.5c0-45-36.5-81.5-81.5-81.5ZM300.1,402.9c-7.9,1.6-10.8-3.3-10.8-7.5s.2-22.2.2-43.2-4.9-24.2-10.6-29.1c35-3.9,71.7-17.3,71.7-77.6s-6.1-31.2-16.1-42.2c1.6-3.9,7.1-20-1.6-41.6,0,0-13.2-4.3-43.2,16.1-12.6-3.5-25.9-5.3-39.3-5.3s-26.7,1.8-39.3,5.3c-30-20.2-43.2-16.1-43.2-16.1-8.6,21.6-3.1,37.7-1.6,41.6-10,11-16.1,25.1-16.1,42.2,0,60.1,36.5,73.6,71.5,77.6-4.5,3.9-8.6,10.8-10,21-9,4.1-31.6,10.8-45.8-13-2.9-4.7-11.8-16.3-24.2-16.1-13.2.2-5.3,7.5.2,10.4,6.7,3.7,14.3,17.7,16.1,22.2,3.1,8.8,13.4,25.7,52.8,18.5,0,13.2.2,25.5.2,29.3s-2.9,8.8-10.8,7.5c-62.5-20.8-107.4-79.5-107.4-149.1S163.2,96.8,250,96.8s157.1,70.3,157.1,157.1-45,128.2-107,149.1Z"/>
</svg>