<?xml version="1.0" encoding="UTF-8"?>
<svg id="Calque_1" data-name="Calque 1" xmlns="http://www.w3.org/2000/svg" viewBox="0 0 500 500">
  <defs>
    <style>
      .cls-1 {
        fill: #2e294e;
      }
    </style>
  </defs>
  <path class="cls-1" d="M465.26,119.57c0-5.71-.25-11.52-1.32-17.11-7.23-37.88-37.97-62.39-78.31-62.42-90.34-.07-180.69-.05-271.03.04-6.16,0-12.45.29-18.46,1.51-37.52,7.63-61.4,38.08-61.44,78.41-.1,86.67-.06,173.35.03,260.02,0,5.94.26,11.98,1.39,17.79,7.28,37.36,37.77,61.93,77.21,62.09,45.63.18,91.26.04,136.89.04,44.71,0,89.43.07,134.14-.07,6.62-.02,13.38-.28,19.82-1.62,37.33-7.76,61.04-37.96,61.1-77.97.13-86.9.06-173.81-.02-260.71ZM354.19,169.49h-165.46l3.95,44.77h157.52l-11.82,132.31-88.47,26.73-.86-.27-87.44-26.49-4.77-53.91h42.84l1.86,20.92,48.89,10.24,48-10.24,5.12-56.62h-149.9l-11.65-130.21h216l-3.81,42.77Z"/>
</svg>