<?xml version="1.0" encoding="UTF-8"?>
<svg id="Calque_1" data-name="Calque 1" xmlns="http://www.w3.org/2000/svg" viewBox="0 0 500 500">
  <defs>
    <style>
      .cls-1 {
        fill: #2e294e;
      }
    </style>
  </defs>
  <path class="cls-1" d="M250.18,40.06c45.48,0,90.96-.11,136.43.03,39.86.12,70.55,24.8,77.7,62.46,1.1,5.81,1.31,11.86,1.32,17.79.08,86.43.11,172.87.03,259.3-.04,40.49-23.66,70.79-61.26,78.64-5.57,1.16-11.4,1.58-17.11,1.59-91.64.09-183.29.23-274.93-.01-39.05-.1-69.39-24.98-76.61-62.09-1.13-5.8-1.37-11.85-1.38-17.78-.08-86.66-.13-173.32-.03-259.99.05-40.29,24.02-70.78,61.6-78.36,6.24-1.26,12.78-1.49,19.18-1.5,45.02-.12,90.04-.06,135.05-.06ZM300.6,336.63c-.69-2.83-.99-4.81-1.65-6.65-20.94-59.12-41.95-118.22-62.84-177.36-1.23-3.47-2.87-5.18-6.83-5.11-13.09.21-26.19.18-39.28.02-3.99-.05-5.54,1.2-6.03,5.38-.72,6.07-1.93,12.22-3.91,17.99-18.11,52.59-36.44,105.11-54.68,157.66-.79,2.27-1.38,4.61-2.41,8.13,11.85,0,22.57-.2,33.28.1,4.56.13,6.46-1.72,7.7-5.86,3.35-11.18,7.2-22.21,10.6-33.37,1.14-3.74,2.68-5.65,7.08-5.6,18.83.25,37.67.25,56.5,0,4.36-.06,5.99,1.74,7.21,5.51,3.68,11.32,7.57,22.58,11.66,33.75.76,2.06,2.82,5.14,4.36,5.19,12.78.42,25.58.24,39.22.24ZM359.32,193.41c-11.85,0-22.85.21-33.84-.1-4.9-.14-6.34,1.61-6.28,6.33.21,16.5.08,33,.08,49.5,0,26.59.2,53.17-.14,79.75-.08,6.46,1.99,8.4,8.26,8.01,8.01-.5,16.1-.58,24.09.02,6.88.52,8.38-2.07,8.34-8.52-.27-42.17-.13-84.34-.15-126.51,0-2.48-.21-4.96-.36-8.49ZM362.02,155.12c-.12-13.18-9.05-22.12-21.95-21.96-13.16.16-22.59,9.52-22.58,22.41.02,13.59,9.39,22.92,22.85,22.74,12.82-.17,21.8-9.78,21.68-23.19Z"/>
  <path class="cls-1" d="M209.36,180.18c7.98,25.92,15.42,50.04,23.05,74.82h-45.31c7.28-24.47,14.49-48.71,22.26-74.82Z"/>
</svg>