<?xml version="1.0" encoding="UTF-8"?>
<svg id="Calque_1" xmlns="http://www.w3.org/2000/svg" version="1.1" viewBox="0 0 500 500">
  <!-- Generator: Adobe Illustrator 29.0.1, SVG Export Plug-In . SVG Version: 2.1.0 Build 192)  -->
  <defs>
    <style>
      .st0, .st1 {
        fill: #2e294e;
      }

      .st1 {
        fill-rule: evenodd;
      }
    </style>
  </defs>
  <path class="st1" d="M308.2,166.9c-57.1,0-114.1,0-171.1,0-4.1-.1-8.1,2.2-9.9,5.9-1.8,3.6-.9,7.7-1.1,11.5,32.3,16,64.6,32.1,97,48,32-15.9,64-31.7,96-47.6,0-2.9.1-5.8,0-8.6-.6-5.2-5.5-9.4-10.7-9.2h0Z"/>
  <path class="st0" d="M383.6,40H116.4c-45,0-81.5,36.5-81.5,81.5v256.9c0,45,36.5,81.5,81.5,81.5h267.2c45,0,81.5-36.5,81.5-81.5V121.5c0-45-36.5-81.5-81.5-81.5ZM285.4,367.4c0,35.1-20.6,51.1-50.7,51.1s-42.9-14.1-50.9-31l27.6-16.7c5.3,9.5,10.2,17.5,21.8,17.5s18.2-4.4,18.2-21.3v-115.4h33.9v115.8ZM365.6,418.6c-31.5,0-51.9-15-61.8-34.7l27.6-16c7.3,11.9,16.7,20.6,33.5,20.6s23-7,23-16.7-9.2-15.8-24.7-22.5l-8.5-3.6c-24.5-10.4-40.8-23.5-40.8-51.1s19.4-44.8,49.7-44.8,37.1,7.5,48.3,27.2l-26.4,17c-5.8-10.4-12.1-14.5-21.8-14.5s-16.2,6.3-16.2,14.5,6.3,14.3,20.9,20.6l8.5,3.6c28.8,12.4,45.1,25,45.1,53.3s-24,47.3-56.2,47.3Z"/>
</svg>