<?xml version="1.0" encoding="UTF-8"?>
<svg id="Calque_1" data-name="Calque 1" xmlns="http://www.w3.org/2000/svg" viewBox="0 0 500 500">
  <defs>
    <style>
      .cls-1 {
        fill: #2e294e;
      }
    </style>
  </defs>
  <path class="cls-1" d="M249.57,459.95c-45.31,0-90.63.14-135.94-.04-39.37-.16-69.79-24.7-77.09-62.05-1.09-5.58-1.38-11.39-1.38-17.1-.08-87.13-.16-174.27-.01-261.4.07-39.82,24.07-70.15,61.27-77.75,6-1.23,12.28-1.51,18.42-1.52,90.17-.09,180.33-.11,270.5-.04,40.27.03,70.95,24.51,78.18,62.39,1.07,5.59,1.32,11.4,1.32,17.11.08,86.9.14,173.81.02,260.71-.06,40.03-23.7,70.22-60.95,78-6.43,1.34-13.18,1.61-19.78,1.63-44.85.14-89.71.07-134.56.07ZM183.78,300.72v-152.91c-11.14,0-21.64.38-32.1-.14-6.32-.31-7.55,2.03-7.51,7.88.24,40.82.13,81.64.13,122.45,0,17.2.22,34.4-.12,51.59-.12,5.87,1.93,7.76,7.52,7.27,4.32-.38,8.69-.07,13.04-.07,30.67,0,61.34.08,92-.15,2.34-.02,6.36-1.82,6.71-3.43,2.28-10.44,3.77-21.05,5.66-32.49h-85.32ZM375.45,229.07c0-11.48-.08-22.69.05-33.9.04-3.68-1.67-5.34-4.97-4.52-8.53,2.14-17.37,3.75-25.33,7.29-6.43,2.87-11.75,8.24-17.67,12.58-.69-4.02-.97-8.14-2.23-11.93-.67-2.01-3.02-4.82-4.7-4.89-10.88-.44-21.78-.23-31.73-.23v143.31c11.84,0,22.34-.36,32.8.14,6.1.29,7.8-1.67,7.73-7.7-.31-25.19-.13-50.4-.13-75.59,0-13.06.73-14.2,13.05-18.81,3.2-1.2,6.48-2.37,9.83-2.89,7.39-1.14,14.85-1.86,23.3-2.87Z"/>
</svg>