<?xml version="1.0" encoding="UTF-8"?>
<svg id="Calque_1" data-name="Calque 1" xmlns="http://www.w3.org/2000/svg" viewBox="0 0 500 500">
  <defs>
    <style>
      .cls-1 {
        fill: #2e294e;
      }
    </style>
  </defs>
  <path class="cls-1" d="M250.22,459.95c-45.63,0-91.26.14-136.89-.04-39.43-.16-69.92-24.73-77.21-62.09-1.13-5.8-1.38-11.85-1.39-17.79-.08-86.67-.13-173.35-.03-260.02.05-40.33,23.92-70.78,61.44-78.41,6.01-1.22,12.3-1.51,18.46-1.51,90.34-.09,180.69-.11,271.03-.04,40.33.03,71.08,24.54,78.31,62.42,1.07,5.59,1.31,11.4,1.32,17.11.08,86.9.15,173.81.02,260.71-.06,40.02-23.77,70.21-61.1,77.97-6.45,1.34-13.2,1.6-19.82,1.62-44.71.13-89.43.07-134.14.07ZM417.51,300.59c-27.77,6.71-53.91,9.19-71.83-16.18-14.47-20.49-14.3-44.14-2.01-65.17,17.52-29.97,45.61-25.68,74.37-17.41,0-9.03-.53-17.5.16-25.87.64-7.79-2.73-11.11-9.87-11.41-12.09-.51-24.35-2.19-36.27-.88-30.39,3.35-52.39,19.34-64.58,47.72-7.7,17.92-8.95,36.77-6.66,55.97,7.48,62.46,60.24,81.95,111.35,68.71,2.04-.53,5.01-3,5.09-4.69.48-9.97.24-19.97.24-30.79ZM193.43,300.43h-77.17v-152.62c-10.27,0-19.87.22-29.46-.09-4.92-.16-6.19,1.68-6.15,6.37.21,20.86.09,41.72.09,62.58,0,37.59,0,75.19,0,112.78,0,3.59-.89,7.44,5.1,7.41,32.55-.15,65.1-.01,97.65-.25,1.7-.01,4.58-2.34,4.89-3.97,1.94-10.28,3.3-20.67,5.03-32.2ZM211.33,193.41c0,27.29,0,53.38,0,79.47,0,19.01.2,38.02-.12,57.02-.1,5.58,1.75,7.18,7.09,6.88,7.31-.41,14.67-.42,21.97,0,5.44.32,7.08-1.46,7.02-6.95-.27-24.73-.12-49.47-.12-74.2,0-15.52,1.64-17.94,16.51-22.8,4.1-1.34,8.43-2.07,12.72-2.7,3.96-.58,7.99-.66,11.86-.95v-38.4c-18.08-1.4-30.6,7.98-42.54,20.29-.6-4.75-.48-8.57-1.71-11.88-.85-2.29-3.48-5.41-5.48-5.53-9.29-.59-18.64-.26-27.2-.26Z"/>
</svg>