<?xml version="1.0" encoding="UTF-8"?>
<svg id="Calque_1" data-name="Calque 1" xmlns="http://www.w3.org/2000/svg" viewBox="0 0 500 500">
  <defs>
    <style>
      .cls-1 {
        fill: #2e294e;
      }
    </style>
  </defs>
  <path class="cls-1" d="M250.71,40.5c45.3,0,90.6-.15,135.89.05,39.28.17,69.63,24.83,76.85,62.17.95,4.91,1.31,10,1.31,15.01.08,88.09.31,176.19-.06,264.28-.16,38.73-24.24,68.17-60.77,75.84-5.99,1.26-12.26,1.63-18.4,1.63-90.37.1-180.73.13-271.1.04-39.86-.04-70.42-24.39-77.81-61.87-1.01-5.12-1.37-10.45-1.38-15.69-.08-87.86-.26-175.73.03-263.59.13-38.91,24.39-68.74,61.13-76.26,6.22-1.27,12.73-1.52,19.1-1.54,45.07-.13,90.14-.07,135.21-.06ZM132.48,148.2v188.44c9.97,0,19.33,0,28.7,0q9.37,0,9.38-9.08c0-16.64,0-33.28,0-50.56,3.34,0,6.02.14,8.67-.02,11.62-.71,23.41-.47,34.81-2.49,23.9-4.22,42.34-16.59,49.7-40.78,10.51-34.54-1.9-74.61-48.84-84.1-27.2-5.5-54.67-1.29-82.42-1.41ZM286.35,297.29c0,10.13-.26,20.39.22,30.61.09,1.99,2.69,4.82,4.76,5.58,5.96,2.19,12.16,4.05,18.42,5.1,18.98,3.19,37.93,3.42,55.8-4.97,14.74-6.92,23.36-18.66,24.62-35.25,1.32-17.38-6.06-30.14-21.08-38.41-6.97-3.84-14.43-6.79-21.62-10.26-6.56-3.17-13.31-6.07-19.42-9.96-2.14-1.36-4.04-5.7-3.46-8.03.67-2.67,3.86-5.4,6.61-6.66,2.96-1.35,6.82-1.84,10.05-1.29,11.83,2.03,23.69,4.18,35.28,7.25,5,1.32,6.74,1.1,6.61-4.31-.18-7.54-.29-15.1.04-22.64.21-4.78-1.79-7.07-6.18-8.32-15.18-4.33-30.71-5.59-46.16-3.22-8.37,1.29-17.09,4-24.31,8.33-24.95,14.94-26.73,49.57-3.53,67.03,7.55,5.68,16.65,9.34,25.18,13.66,5.49,2.78,11.69,4.38,16.68,7.81,3.06,2.1,6.25,6.78,6.01,10.06-.19,2.64-5.19,6.47-8.51,7.01-7.1,1.17-14.72,1.73-21.71.39-11.29-2.17-22.25-6.07-34.31-9.51Z"/>
  <path class="cls-1" d="M171.01,242.76v-59.9c14.22-.07,28.35-2.54,41.77,3.73,11.3,5.27,15.49,14.74,15.3,26.79-.2,12.39-6.04,20.87-17.3,25.49-12.61,5.17-25.83,4.76-39.77,3.89Z"/>
</svg>