<?xml version="1.0" encoding="UTF-8"?>
<svg id="Calque_1" xmlns="http://www.w3.org/2000/svg" version="1.1" viewBox="0 0 500 500">
  <!-- Generator: Adobe Illustrator 29.0.1, SVG Export Plug-In . SVG Version: 2.1.0 Build 192)  -->
  <defs>
    <style>
      .st0 {
        fill: #2e294e;
        fill-rule: evenodd;
      }
    </style>
  </defs>
  <path class="st0" d="M393.2,223.4c-7-2.1-15.9-3.1-26.5-3-1.6.1-3.1.2-4.6.2-1.3,0-2.6,0-4,0l-11.9,59.3c.8.1,1.6.2,2.4.2h2.8c12.8.1,23.4-1.1,31.9-3.8,8.5-2.8,14.2-12.4,17.1-29,2.4-13.9,0-21.9-7.2-24Z"/>
  <path class="st0" d="M156.8,223.4c-7-2.1-15.9-3.1-26.5-3-1.6.1-3.1.2-4.6.2-1.3,0-2.6,0-4,0l-11.9,59.3c.8.1,1.6.2,2.4.2h2.8c12.8.1,23.4-1.1,31.9-3.8,8.5-2.8,14.2-12.4,17.1-29,2.4-13.9,0-21.9-7.2-24Z"/>
  <path class="st0" d="M383.6,40H116.4c-45,0-81.5,36.5-81.5,81.5v256.9c0,45,36.5,81.5,81.5,81.5h267.2c45,0,81.5-36.5,81.5-81.5V121.5c0-45-36.5-81.5-81.5-81.5ZM192.9,247.6c-.9,7-3,13.9-6.2,20.6-3.1,6.7-7.3,12.8-12.8,18.3-6.6,6.9-13.8,11.2-21.3,13.1-7.6,1.9-15.4,2.8-23.5,2.8h-23.9l-7.6,37.7h-27.7l28.5-142.3h53.4c15.7.1,27.1,4.6,34.1,13.5,7,8.9,9.4,21,7,36.3ZM291.8,302.4h-27.9l12.8-63.1c1.3-6.6.9-11.3-1.2-14.1-2.1-2.8-6.7-4.2-13.8-4.2l-22.1-.2-16.4,81.6h-27.5l28.7-142.5h0s0,0,0,0h27.5l-7.8,37.9h24.7c13.6.3,23.7,3,30.3,8.3,6.8,5.3,8.8,15.3,6,30.2l-13.4,66.1ZM429.3,247.6c-.9,7-3,13.9-6.2,20.6-3.1,6.7-7.3,12.8-12.8,18.3-6.6,6.9-13.8,11.2-21.3,13.1-7.6,1.9-15.4,2.8-23.5,2.8h-23.9l-7.6,37.7h-27.7l28.5-142.3h53.4c15.7.1,27.1,4.6,34.1,13.5,7,8.9,9.4,21,7,36.3Z"/>
</svg>