<?xml version="1.0" encoding="UTF-8"?>
<svg id="Calque_1" data-name="Calque 1" xmlns="http://www.w3.org/2000/svg" viewBox="0 0 500 500">
  <defs>
    <style>
      .cls-1 {
        fill: #2e294e;
      }
    </style>
  </defs>
  <path class="cls-1" d="M249.78,459.67c-45.52,0-91.04.14-136.56-.04-37.26-.15-67.23-23.07-75.76-58-1.64-6.73-2.19-13.88-2.2-20.83-.14-87.18-.16-174.35-.06-261.53.05-45.72,32.31-78.59,78.1-78.75,91.04-.32,182.08-.29,273.12-.01,46.14.14,78.35,33,78.39,79.18.07,86.95.07,173.9,0,260.85-.04,46.41-32.69,79.02-79.15,79.12-45.29.1-90.59.02-135.88.02ZM137.73,148.42v188.18c10.9,0,21.29-.31,31.65.12,5.62.24,6.87-1.96,6.78-7.06-.25-15.16-.11-30.33-.07-45.5,0-2.37.28-4.74.45-7.58,10.25,0,19.76.51,29.2-.11,20.45-1.34,39.48-6.85,52.97-23.56,15.92-19.73,18-42.26,9.4-65.31-8.76-23.49-27.87-35.86-51.74-38.38-21.72-2.3-43.82-1.1-65.75-1.35-4.25-.05-8.5.35-12.89.54ZM297.2,193.34c0,16.85,0,32.46,0,48.07,0,29.43.11,58.86-.1,88.29-.04,5.16,1.18,7.32,6.78,7.03,8.81-.45,17.67-.45,26.48,0,5.69.29,7.3-1.6,7.24-7.23-.27-26.26.24-52.53-.34-78.78-.17-7.84,2.97-12.45,9.52-14.27,10.37-2.88,21.01-4.92,31.64-6.67,3.8-.63,5.73-1.31,5.64-5.54-.2-9.5-.2-19.02,0-28.52.1-4.51-1.73-6.64-6.04-5.49-8.22,2.21-16.73,3.99-24.36,7.56-6.55,3.06-12.05,8.37-18.25,12.85-.74-4.15-1.11-8.45-2.4-12.44-.62-1.91-2.93-4.58-4.56-4.65-10.56-.42-21.14-.21-31.26-.21Z"/>
  <path class="cls-1" d="M176.68,242.63v-61.15c12.97,1.28,25.66,1.41,37.8,4.06,12,2.62,18.39,12.64,19.04,25.11.64,12.37-5.61,23.06-16.65,27.87-12.85,5.6-26.32,5.15-40.18,4.11Z"/>
</svg>