<?xml version="1.0" encoding="UTF-8"?>
<svg id="Calque_1" data-name="Calque 1" xmlns="http://www.w3.org/2000/svg" viewBox="0 0 500 500">
  <defs>
    <style>
      .cls-1 {
        fill: #2e294e;
      }
    </style>
  </defs>
  <path class="cls-1" d="M464.76,117.72c0-5.01-.36-10.1-1.31-15.01-7.21-37.33-37.57-61.99-76.85-62.17-45.3-.2-90.59-.05-135.89-.05-45.07,0-90.14-.06-135.21.06-6.38.02-12.88.27-19.1,1.54-36.75,7.52-61,37.34-61.13,76.26-.3,87.86-.12,175.73-.03,263.59,0,5.24.37,10.56,1.38,15.69,7.4,37.48,37.95,61.83,77.81,61.87,90.37.09,180.73.06,271.1-.04,6.14,0,12.41-.38,18.4-1.63,36.53-7.66,60.61-37.11,60.77-75.84.37-88.09.14-176.18.06-264.28ZM296.53,345.61c-1.63,5.6-6.78,9.46-12.61,9.46h-67.84c-5.84,0-10.98-3.86-12.62-9.46l-58.5-200.67h42.65c5.84,0,10.97,3.87,12.61,9.49l44.93,155.28c.28.94,1.14,1.57,2.12,1.57h5.46c.98,0,1.84-.63,2.12-1.57l44.93-155.28c1.63-5.63,6.77-9.49,12.61-9.49h42.65l-58.51,200.67Z"/>
</svg>